<?xml version="1.0" encoding="UTF-8" standalone="no"?>
<!-- Created with Inkscape (http://www.inkscape.org/) -->

<svg
   xmlns:dc="http://purl.org/dc/elements/1.1/"
   xmlns:cc="http://creativecommons.org/ns#"
   xmlns:rdf="http://www.w3.org/1999/02/22-rdf-syntax-ns#"
   xmlns:svg="http://www.w3.org/2000/svg"
   xmlns="http://www.w3.org/2000/svg"
   version="1.1"
   width="383.75"
   height="96.25"
   id="svg2"
   xml:space="preserve"><metadata
     id="metadata8"><rdf:RDF><cc:Work
         rdf:about=""><dc:format>image/svg+xml</dc:format><dc:type
           rdf:resource="http://purl.org/dc/dcmitype/StillImage" /><dc:title></dc:title></cc:Work></rdf:RDF></metadata><defs
     id="defs6"><clipPath
       id="clipPath24"><path
         d="M 0,77 307,77 307,0 0,0 0,77 z"
         id="path26" /></clipPath><clipPath
       id="clipPath232"><path
         d="m 13.7818,66.3622 59.6859,0 0,-59.68524 -59.6859,0 0,59.68524 z"
         id="path234" /></clipPath><linearGradient
       x1="0"
       y1="0"
       x2="1"
       y2="0"
       id="linearGradient240"
       gradientUnits="userSpaceOnUse"
       gradientTransform="matrix(-24.690922,29.52961,29.52961,24.690922,57.593891,19.813333)"
       spreadMethod="pad"><stop
         id="stop242"
         style="stop-color:#2774b7;stop-opacity:1"
         offset="0" /><stop
         id="stop244"
         style="stop-color:#57ace0;stop-opacity:1"
         offset="0.87826103" /><stop
         id="stop246"
         style="stop-color:#57ace0;stop-opacity:1"
         offset="0.87826103" /><stop
         id="stop248"
         style="stop-color:#57ace0;stop-opacity:1"
         offset="1" /></linearGradient><clipPath
       id="clipPath268"><path
         d="m 7.61905,68.2043 59.59905,0 0,-59.59843 -59.59905,0 0,59.59843 z"
         id="path270" /></clipPath><linearGradient
       x1="0"
       y1="0"
       x2="1"
       y2="0"
       id="linearGradient276"
       gradientUnits="userSpaceOnUse"
       gradientTransform="matrix(-24.690922,29.52961,29.52961,24.690922,52.135914,20.804035)"
       spreadMethod="pad"><stop
         id="stop278"
         style="stop-color:#2774b7;stop-opacity:1"
         offset="0" /><stop
         id="stop280"
         style="stop-color:#83b8e4;stop-opacity:1"
         offset="0.87826103" /><stop
         id="stop282"
         style="stop-color:#83b8e4;stop-opacity:1"
         offset="0.87826103" /><stop
         id="stop284"
         style="stop-color:#83b8e4;stop-opacity:1"
         offset="1" /></linearGradient><clipPath
       id="clipPath304"><path
         d="m 12.1776,72.627 59.599,0 0,-59.5984 -59.599,0 0,59.5984 z"
         id="path306" /></clipPath><linearGradient
       x1="0"
       y1="0"
       x2="1"
       y2="0"
       id="linearGradient312"
       gradientUnits="userSpaceOnUse"
       gradientTransform="matrix(-24.690922,29.52961,29.52961,24.690922,57.742516,23.973345)"
       spreadMethod="pad"><stop
         id="stop314"
         style="stop-color:#2774b7;stop-opacity:1"
         offset="0" /><stop
         id="stop316"
         style="stop-color:#4daae0;stop-opacity:1"
         offset="0.875099" /><stop
         id="stop318"
         style="stop-color:#4daae0;stop-opacity:1"
         offset="0.875099" /><stop
         id="stop320"
         style="stop-color:#4daae0;stop-opacity:1"
         offset="1" /></linearGradient><clipPath
       id="clipPath340"><path
         d="m 22.195,51.6063 36.0656,0 0,-25.5687 -36.0656,0 0,25.5687 z"
         id="path342" /></clipPath></defs><g
     transform="matrix(1.25,0,0,-1.25,0,96.25)"
     id="g10"><g
       transform="translate(90.4518,42.6422)"
       id="g12"><path
         d="M 0,0 3.135,8.485 6.27,0 0,0 z m 2.147,11.509 -7.493,-20.249 2.109,0 2.515,6.771 7.714,0 2.516,-6.771 2.108,0 -7.493,20.249 -1.976,0 z"
         id="path14"
         style="fill:#162740;fill-opacity:1;fill-rule:nonzero;stroke:none" /></g><g
       transform="translate(105.4235,54.151)"
       id="g16"><path
         d="m 0,0 -1.969,0 0,-20.249 11.444,0 0,1.969 L 0,-18.28 0,0 z"
         id="path18"
         style="fill:#162740;fill-opacity:1;fill-rule:nonzero;stroke:none" /></g><g
       id="g20"><g
         clip-path="url(#clipPath24)"
         id="g22"><g
           transform="translate(122.5656,45.1988)"
           id="g28"><path
             d="m 0,0 c -4.719,0.952 -5.141,2.691 -5.047,3.923 0.206,3.112 3.714,3.354 4.785,3.354 1.664,0 3.776,-0.575 4.71,-2.191 L 4.727,4.604 6.564,5.32 6.19,5.974 C 4.995,8.067 2.703,9.22 -0.262,9.22 c -3.272,0 -6.629,-1.618 -6.752,-5.224 -0.201,-4.502 4.56,-5.49 6.586,-5.911 3.394,-0.741 5.323,-1.677 5.142,-4.229 -0.346,-2.567 -2.882,-3.478 -4.949,-3.478 -2.14,0 -4.11,0.919 -5.141,2.398 l -0.305,0.436 -1.814,-0.789 0.428,-0.646 c 1.387,-2.092 3.921,-3.341 6.778,-3.341 3.303,0 6.775,1.816 7.018,5.286 C 7.08,-1.403 1.75,-0.347 0,0"
             id="path30"
             style="fill:#162740;fill-opacity:1;fill-rule:nonzero;stroke:none" /></g><g
           transform="translate(134.7443,42.6422)"
           id="g32"><path
             d="M 0,0 3.135,8.485 6.27,0 0,0 z m 2.147,11.509 -7.493,-20.249 2.109,0 2.515,6.771 7.714,0 2.516,-6.771 2.108,0 -7.493,20.249 -1.976,0 z"
             id="path34"
             style="fill:#162740;fill-opacity:1;fill-rule:nonzero;stroke:none" /></g><g
           transform="translate(159.173,37.6895)"
           id="g36"><path
             d="m 0,0 c -0.837,-1.287 -2.689,-2.086 -4.834,-2.086 -2.562,0 -5.319,1.245 -5.319,3.98 l 0,8.885 c 0,2.754 2.757,4.008 5.319,4.008 2.086,0 4.024,-0.886 4.823,-2.203 L 0.355,11.98 2.004,13.177 1.687,13.69 c -1.158,1.874 -3.625,3.039 -6.441,3.039 -3.662,0 -7.368,-2.043 -7.368,-5.95 l 0,-8.885 c 0,-3.906 3.666,-5.949 7.288,-5.949 2.855,0 5.354,1.174 6.521,3.065 L 2.061,-0.385 0.316,0.486 0,0 z"
             id="path38"
             style="fill:#162740;fill-opacity:1;fill-rule:nonzero;stroke:none" /></g><g
           transform="translate(175.6496,52.1812)"
           id="g40"><path
             d="m 0,0 0,1.97 -12.568,0 0,-20.249 12.568,0 0,1.968 -10.599,0 0,7.105 9.796,0 0,2.022 -9.796,0 0,7.184 L 0,0 z"
             id="path42"
             style="fill:#162740;fill-opacity:1;fill-rule:nonzero;stroke:none" /></g><g
           transform="translate(187.1546,38.7267)"
           id="g44"><path
             d="m 0,0 c 1.741,0 2.542,0.886 2.542,2.2 l 0,6.311 c 0,1.314 -0.829,2.142 -2.542,2.142 l -2.599,0 L -2.599,0 0,0 z m -0.172,15.423 c 4.056,0 7.854,-2.057 7.854,-6.769 l 0,-6.797 c 0,-4.656 -3.798,-6.683 -7.854,-6.655 l -7.568,0 0,20.221 7.568,0 z"
             id="path46"
             style="fill:#162740;fill-opacity:1;fill-rule:nonzero;stroke:none" /></g><path
           d="m 202.69,33.929 -5.113,0 0,20.221 5.113,0 0,-20.221 z"
           id="path48"
           style="fill:#162740;fill-opacity:1;fill-rule:nonzero;stroke:none" /><g
           transform="translate(216.1405,48.1514)"
           id="g50"><path
             d="m 0,0 c -1.113,2.714 -5.626,2.085 -5.626,-0.571 l 0,-6.94 c 0,-3.171 5.912,-3.141 5.912,0 l 0,0.743 -3.227,0 0,4.284 8.139,0 0,-5.027 c 0,-4.656 -3.884,-6.997 -7.94,-6.997 -3.998,0 -7.996,2.341 -7.996,6.997 l 0,6.94 c 0,4.57 3.998,6.855 7.996,6.855 2.628,0 5.627,-1.086 7.026,-4.313 L 0,0 z"
             id="path52"
             style="fill:#162740;fill-opacity:1;fill-rule:nonzero;stroke:none" /></g><path
           d="m 228.821,33.929 -5.113,0 0,20.221 5.113,0 0,-20.221 z"
           id="path54"
           style="fill:#162740;fill-opacity:1;fill-rule:nonzero;stroke:none" /><g
           transform="translate(241.3572,49.3227)"
           id="g56"><path
             d="m 0,0 0,-15.394 -5.169,0 0,15.394 -5.37,0 0,4.855 15.909,0 L 5.37,0 0,0 z"
             id="path58"
             style="fill:#162740;fill-opacity:1;fill-rule:nonzero;stroke:none" /></g><g
           transform="translate(255.6944,42.5251)"
           id="g60"><path
             d="m 0,0 -1.4,5.912 -0.142,0 L -3.028,0 0,0 z m 8.025,-8.596 -5.483,0 -1.314,4.056 -5.398,0 -1.257,-4.056 -5.484,0 7.055,20.221 4.655,0 7.226,-20.221 z"
             id="path62"
             style="fill:#162740;fill-opacity:1;fill-rule:nonzero;stroke:none" /></g><g
           transform="translate(265.0608,54.1497)"
           id="g64"><path
             d="m 0,0 5.141,0 0,-15.166 8.225,0 0,-5.055 L 0,-20.221 0,0 z"
             id="path66"
             style="fill:#162740;fill-opacity:1;fill-rule:nonzero;stroke:none" /></g><g
           transform="translate(285.6234,46.21)"
           id="g68"><path
             d="m 0,0 8.196,0 0,-4.427 -8.196,0 0,-3.027 8.91,0 0,-4.827 -14.08,0 0,20.221 14.08,0 0,-4.799 L 0,3.141 0,0 z"
             id="path70"
             style="fill:#162740;fill-opacity:1;fill-rule:nonzero;stroke:none" /></g><g
           transform="translate(88.7104,21.3477)"
           id="g72"><path
             d="M 0,0 C 0.103,-0.201 0.168,-0.395 0.196,-0.581 0,-0.665 -0.201,-0.726 -0.406,-0.764 c -0.205,-0.037 -0.427,-0.055 -0.665,-0.055 -0.365,0 -0.692,0.059 -0.984,0.178 -0.292,0.12 -0.538,0.289 -0.738,0.511 -0.201,0.222 -0.354,0.491 -0.462,0.809 -0.107,0.317 -0.161,0.674 -0.161,1.071 0,0.401 0.054,0.764 0.161,1.088 0.108,0.324 0.261,0.6 0.462,0.83 0.2,0.228 0.445,0.404 0.735,0.528 0.289,0.123 0.614,0.186 0.973,0.186 0.266,0 0.494,-0.019 0.686,-0.057 C -0.208,4.288 -0.037,4.244 0.112,4.192 0.103,4.085 0.083,3.986 0.053,3.896 0.022,3.804 -0.014,3.707 -0.056,3.604 -0.126,3.628 -0.193,3.649 -0.259,3.668 -0.324,3.687 -0.395,3.703 -0.469,3.717 -0.544,3.73 -0.627,3.741 -0.718,3.748 -0.809,3.755 -0.912,3.759 -1.029,3.759 -1.538,3.759 -1.934,3.586 -2.216,3.24 -2.498,2.896 -2.639,2.398 -2.639,1.75 c 0,-0.332 0.039,-0.619 0.118,-0.861 0.081,-0.243 0.192,-0.444 0.336,-0.602 0.146,-0.159 0.32,-0.278 0.522,-0.357 0.203,-0.079 0.431,-0.119 0.683,-0.119 0.196,0 0.374,0.016 0.532,0.048 C -0.289,-0.107 -0.14,-0.062 0,0"
             id="path74"
             style="fill:#3e8dcb;fill-opacity:1;fill-rule:nonzero;stroke:none" /></g><g
           transform="translate(92.686,21.1445)"
           id="g76"><path
             d="M 0,0 C 0.233,0 0.436,0.045 0.605,0.137 0.776,0.228 0.917,0.359 1.029,0.532 1.142,0.704 1.226,0.912 1.281,1.154 1.337,1.397 1.365,1.673 1.365,1.98 1.365,2.284 1.337,2.559 1.281,2.804 1.226,3.048 1.142,3.256 1.029,3.427 0.917,3.597 0.776,3.728 0.605,3.818 0.436,3.909 0.233,3.955 0,3.955 -0.233,3.955 -0.435,3.909 -0.605,3.818 -0.775,3.728 -0.917,3.597 -1.028,3.427 -1.141,3.256 -1.225,3.048 -1.28,2.804 -1.337,2.559 -1.364,2.284 -1.364,1.98 -1.364,1.673 -1.337,1.397 -1.28,1.154 -1.225,0.912 -1.141,0.704 -1.028,0.532 -0.917,0.359 -0.775,0.228 -0.605,0.137 -0.435,0.045 -0.233,0 0,0 m 0,-0.616 c -0.363,0 -0.679,0.064 -0.944,0.192 -0.267,0.128 -0.488,0.308 -0.662,0.539 -0.175,0.232 -0.306,0.505 -0.392,0.822 -0.087,0.318 -0.13,0.666 -0.13,1.043 0,0.378 0.043,0.726 0.13,1.043 0.086,0.318 0.217,0.592 0.392,0.824 0.174,0.23 0.395,0.411 0.662,0.542 C -0.679,4.52 -0.363,4.585 0,4.585 0.364,4.585 0.68,4.52 0.945,4.389 1.211,4.258 1.432,4.077 1.606,3.847 1.782,3.615 1.911,3.341 1.995,3.023 2.079,2.706 2.121,2.358 2.121,1.98 2.121,1.603 2.079,1.255 1.995,0.937 1.911,0.62 1.782,0.347 1.606,0.115 1.432,-0.116 1.211,-0.296 0.945,-0.424 0.68,-0.552 0.364,-0.616 0,-0.616"
             id="path78"
             style="fill:#3e8dcb;fill-opacity:1;fill-rule:nonzero;stroke:none" /></g><g
           transform="translate(96.9429,25.6455)"
           id="g80"><path
             d="M 0,0 C 0.051,0.009 0.105,0.016 0.164,0.021 0.223,0.025 0.277,0.027 0.329,0.027 0.38,0.027 0.435,0.025 0.493,0.021 0.552,0.016 0.606,0.009 0.658,0 l 2.191,-3.78 0,3.78 C 2.905,0.009 2.963,0.016 3.023,0.021 3.084,0.025 3.146,0.027 3.206,0.027 3.257,0.027 3.311,0.025 3.367,0.021 3.423,0.016 3.477,0.009 3.527,0 l 0,-5.033 C 3.477,-5.043 3.422,-5.05 3.363,-5.055 3.305,-5.059 3.25,-5.062 3.199,-5.062 c -0.052,0 -0.106,0.003 -0.165,0.007 -0.058,0.005 -0.113,0.012 -0.164,0.022 l -2.198,3.759 0,-3.759 C 0.62,-5.043 0.565,-5.05 0.507,-5.055 0.449,-5.059 0.392,-5.062 0.336,-5.062 c -0.061,0 -0.12,0.003 -0.179,0.007 C 0.099,-5.05 0.046,-5.043 0,-5.033 L 0,0 z"
             id="path82"
             style="fill:#3e8dcb;fill-opacity:1;fill-rule:nonzero;stroke:none" /></g><g
           transform="translate(102.6685,21.375)"
           id="g84"><path
             d="M 0,0 C 0.153,-0.056 0.314,-0.104 0.482,-0.146 0.65,-0.188 0.856,-0.21 1.099,-0.21 c 0.382,0 0.669,0.078 0.857,0.234 C 2.146,0.181 2.24,0.393 2.24,0.658 2.24,0.789 2.22,0.901 2.181,0.994 2.141,1.088 2.081,1.168 2.002,1.235 1.922,1.304 1.823,1.365 1.704,1.421 1.585,1.478 1.446,1.538 1.288,1.604 L 0.889,1.765 C 0.753,1.82 0.63,1.882 0.518,1.95 0.406,2.018 0.309,2.101 0.228,2.198 0.146,2.296 0.081,2.409 0.035,2.538 c -0.047,0.128 -0.07,0.281 -0.07,0.458 0,0.425 0.144,0.757 0.433,0.998 0.29,0.24 0.696,0.36 1.219,0.36 0.224,0 0.436,-0.018 0.637,-0.056 C 2.454,4.261 2.632,4.214 2.786,4.158 2.763,3.962 2.711,3.769 2.632,3.577 2.506,3.624 2.359,3.666 2.194,3.703 2.028,3.74 1.841,3.76 1.631,3.76 1.337,3.76 1.11,3.7 0.952,3.581 0.793,3.462 0.714,3.283 0.714,3.045 0.714,2.947 0.733,2.859 0.773,2.783 0.812,2.706 0.865,2.638 0.931,2.58 0.996,2.521 1.073,2.469 1.162,2.422 1.25,2.376 1.344,2.334 1.441,2.296 L 1.834,2.143 C 2.021,2.067 2.187,1.989 2.331,1.908 2.476,1.826 2.599,1.73 2.702,1.621 2.805,1.511 2.883,1.382 2.937,1.232 2.99,1.083 3.017,0.908 3.017,0.707 3.017,0.227 2.851,-0.152 2.52,-0.431 2.188,-0.708 1.724,-0.847 1.127,-0.847 c -0.145,0 -0.275,0.005 -0.393,0.014 -0.116,0.01 -0.224,0.023 -0.325,0.042 -0.1,0.019 -0.197,0.042 -0.29,0.07 -0.094,0.029 -0.189,0.059 -0.287,0.091 0.009,0.103 0.03,0.208 0.063,0.316 C -0.072,-0.207 -0.038,-0.103 0,0"
             id="path86"
             style="fill:#3e8dcb;fill-opacity:1;fill-rule:nonzero;stroke:none" /></g><g
           transform="translate(108.5698,25.0225)"
           id="g88"><path
             d="m 0,0 -1.31,0 c -0.008,0.047 -0.016,0.098 -0.02,0.154 -0.005,0.056 -0.007,0.11 -0.007,0.16 0,0.052 0.002,0.105 0.007,0.159 0.004,0.053 0.012,0.103 0.02,0.15 l 3.332,0 C 2.032,0.576 2.039,0.527 2.044,0.476 2.048,0.425 2.051,0.373 2.051,0.322 2.051,0.271 2.048,0.216 2.044,0.157 2.039,0.099 2.032,0.047 2.022,0 l -1.308,0 0,-4.41 C 0.606,-4.424 0.489,-4.432 0.363,-4.432 0.233,-4.432 0.111,-4.424 0,-4.41 L 0,0 z"
             id="path90"
             style="fill:#3e8dcb;fill-opacity:1;fill-rule:nonzero;stroke:none" /></g><g
           transform="translate(112.4888,25.6523)"
           id="g92"><path
             d="M 0,0 C 0.103,0.009 0.196,0.019 0.28,0.028 0.364,0.037 0.447,0.046 0.528,0.053 0.61,0.06 0.695,0.065 0.784,0.07 0.873,0.074 0.971,0.077 1.078,0.077 1.316,0.077 1.552,0.054 1.785,0.007 2.019,-0.04 2.227,-0.121 2.408,-0.238 2.59,-0.354 2.738,-0.513 2.853,-0.711 2.967,-0.909 3.024,-1.16 3.024,-1.463 3.024,-1.646 2.994,-1.811 2.934,-1.96 2.872,-2.109 2.796,-2.242 2.702,-2.359 2.608,-2.476 2.503,-2.577 2.384,-2.663 2.265,-2.75 2.149,-2.821 2.037,-2.877 L 1.953,-2.919 3.416,-5.04 C 3.29,-5.054 3.147,-5.062 2.989,-5.062 c -0.126,0 -0.252,0.008 -0.378,0.022 l -1.61,2.331 0,0.028 0.056,0.014 c 0.127,0.032 0.259,0.077 0.399,0.133 0.14,0.055 0.27,0.13 0.389,0.221 0.119,0.09 0.218,0.2 0.298,0.329 0.079,0.128 0.118,0.283 0.118,0.465 0,0.336 -0.099,0.585 -0.297,0.748 -0.198,0.165 -0.466,0.246 -0.802,0.246 -0.079,0 -0.153,-0.002 -0.221,-0.007 C 0.874,-0.537 0.798,-0.544 0.714,-0.553 l 0,-4.487 C 0.663,-5.045 0.605,-5.05 0.543,-5.054 0.479,-5.059 0.42,-5.062 0.364,-5.062 0.309,-5.062 0.247,-5.06 0.182,-5.058 0.117,-5.055 0.056,-5.05 0,-5.04 L 0,0 z"
             id="path94"
             style="fill:#3e8dcb;fill-opacity:1;fill-rule:nonzero;stroke:none" /></g><g
           transform="translate(117.6978,25.6455)"
           id="g96"><path
             d="M 0,0 C 0.111,0.014 0.233,0.021 0.363,0.021 0.489,0.021 0.606,0.014 0.714,0 l 0,-2.856 c 0,-0.29 0.018,-0.537 0.056,-0.743 0.037,-0.205 0.097,-0.372 0.181,-0.5 0.084,-0.129 0.195,-0.222 0.333,-0.283 0.138,-0.061 0.307,-0.092 0.508,-0.092 0.2,0 0.368,0.031 0.504,0.092 0.135,0.061 0.245,0.154 0.329,0.283 0.084,0.128 0.145,0.295 0.182,0.5 0.037,0.206 0.055,0.453 0.055,0.743 L 2.862,0 C 2.979,0.014 3.099,0.021 3.22,0.021 3.351,0.021 3.472,0.014 3.584,0 l 0,-2.982 C 3.584,-3.318 3.552,-3.619 3.489,-3.885 3.426,-4.151 3.323,-4.375 3.181,-4.558 3.039,-4.739 2.854,-4.878 2.625,-4.974 2.396,-5.069 2.118,-5.117 1.792,-5.117 c -0.327,0 -0.605,0.048 -0.833,0.143 -0.23,0.096 -0.415,0.235 -0.557,0.416 C 0.26,-4.375 0.157,-4.151 0.094,-3.885 0.031,-3.619 0,-3.318 0,-2.982 L 0,0 z"
             id="path98"
             style="fill:#3e8dcb;fill-opacity:1;fill-rule:nonzero;stroke:none" /></g><g
           transform="translate(123.5562,25.6455)"
           id="g100"><path
             d="m 0,0 c 0.056,0.009 0.114,0.016 0.175,0.021 0.06,0.004 0.121,0.006 0.181,0.006 0.061,0 0.123,-0.002 0.183,-0.006 C 0.6,0.016 0.658,0.009 0.714,0 l 0,-5.033 C 0.658,-5.043 0.601,-5.05 0.542,-5.055 0.483,-5.059 0.422,-5.062 0.356,-5.062 c -0.06,0 -0.122,0.003 -0.185,0.007 C 0.108,-5.05 0.051,-5.043 0,-5.033 L 0,0 z"
             id="path102"
             style="fill:#3e8dcb;fill-opacity:1;fill-rule:nonzero;stroke:none" /></g><g
           transform="translate(126.6079,25.6523)"
           id="g104"><path
             d="M 0,0 C 0.103,0.009 0.196,0.019 0.28,0.028 0.364,0.037 0.447,0.046 0.528,0.053 0.61,0.06 0.695,0.065 0.784,0.07 0.873,0.074 0.971,0.077 1.078,0.077 1.316,0.077 1.552,0.054 1.785,0.007 2.019,-0.04 2.227,-0.121 2.408,-0.238 2.59,-0.354 2.738,-0.513 2.853,-0.711 2.967,-0.909 3.024,-1.16 3.024,-1.463 3.024,-1.646 2.994,-1.811 2.934,-1.96 2.872,-2.109 2.796,-2.242 2.702,-2.359 2.608,-2.476 2.503,-2.577 2.384,-2.663 2.265,-2.75 2.149,-2.821 2.037,-2.877 L 1.953,-2.919 3.416,-5.04 C 3.29,-5.054 3.147,-5.062 2.989,-5.062 c -0.126,0 -0.252,0.008 -0.378,0.022 l -1.61,2.331 0,0.028 0.056,0.014 c 0.127,0.032 0.259,0.077 0.399,0.133 0.14,0.055 0.27,0.13 0.389,0.221 0.119,0.09 0.218,0.2 0.298,0.329 0.079,0.128 0.118,0.283 0.118,0.465 0,0.336 -0.099,0.585 -0.297,0.748 -0.198,0.165 -0.466,0.246 -0.802,0.246 -0.079,0 -0.153,-0.002 -0.221,-0.007 C 0.874,-0.537 0.798,-0.544 0.714,-0.553 l 0,-4.487 C 0.663,-5.045 0.605,-5.05 0.543,-5.054 0.479,-5.059 0.42,-5.062 0.364,-5.062 0.309,-5.062 0.247,-5.06 0.182,-5.058 0.117,-5.055 0.056,-5.05 0,-5.04 L 0,0 z"
             id="path106"
             style="fill:#3e8dcb;fill-opacity:1;fill-rule:nonzero;stroke:none" /></g><g
           transform="translate(131.8647,25.6455)"
           id="g108"><path
             d="m 0,0 2.765,0 c 0.013,-0.094 0.021,-0.196 0.021,-0.309 0,-0.05 -0.002,-0.104 -0.004,-0.16 C 2.78,-0.525 2.774,-0.576 2.765,-0.623 l -2.051,0 0,-1.442 1.638,0 C 2.361,-2.112 2.368,-2.162 2.373,-2.216 2.377,-2.27 2.38,-2.322 2.38,-2.373 2.38,-2.425 2.377,-2.479 2.373,-2.534 2.368,-2.59 2.361,-2.642 2.352,-2.688 l -1.638,0 0,-1.722 2.106,0 C 2.835,-4.504 2.842,-4.606 2.842,-4.718 2.842,-4.77 2.841,-4.823 2.838,-4.879 2.836,-4.936 2.83,-4.986 2.82,-5.033 L 0,-5.033 0,0 z"
             id="path110"
             style="fill:#3e8dcb;fill-opacity:1;fill-rule:nonzero;stroke:none" /></g><g
           transform="translate(139.4604,25.6455)"
           id="g112"><path
             d="M 0,0 C 0.051,0.009 0.105,0.016 0.164,0.021 0.223,0.025 0.284,0.027 0.35,0.027 0.41,0.027 0.471,0.025 0.532,0.021 0.593,0.016 0.65,0.009 0.707,0 l 0,-4.403 1.974,0 C 2.69,-4.455 2.696,-4.508 2.698,-4.564 2.7,-4.62 2.702,-4.672 2.702,-4.718 2.702,-4.83 2.694,-4.936 2.681,-5.033 L 0,-5.033 0,0 z"
             id="path114"
             style="fill:#3e8dcb;fill-opacity:1;fill-rule:nonzero;stroke:none" /></g><g
           transform="translate(143.52,25.6455)"
           id="g116"><path
             d="M 0,0 C 0.057,0.009 0.113,0.016 0.172,0.021 0.23,0.025 0.285,0.027 0.336,0.027 0.393,0.027 0.452,0.025 0.515,0.021 0.578,0.016 0.638,0.009 0.693,0 L 0.26,-1.562 C 0.198,-1.575 0.139,-1.583 0.081,-1.586 0.022,-1.588 -0.032,-1.589 -0.084,-1.589 c -0.056,0 -0.11,10e-4 -0.164,0.003 -0.054,0.003 -0.108,0.011 -0.165,0.024 L 0,0 z"
             id="path118"
             style="fill:#3e8dcb;fill-opacity:1;fill-rule:nonzero;stroke:none" /></g><g
           transform="translate(147.7544,26.0654)"
           id="g120"><path
             d="m 0,0 c -0.061,-0.01 -0.123,-0.017 -0.188,-0.021 -0.066,-0.004 -0.131,-0.007 -0.197,-0.007 -0.065,0 -0.126,0.003 -0.181,0.007 C -0.623,-0.017 -0.684,-0.01 -0.749,0 l 0.742,0.756 C 0.068,0.766 0.147,0.773 0.231,0.78 0.315,0.787 0.399,0.791 0.483,0.791 0.572,0.791 0.656,0.787 0.735,0.78 0.814,0.773 0.887,0.766 0.952,0.756 L 0,0 z m -1.483,-0.42 2.764,0 c 0.014,-0.094 0.022,-0.196 0.022,-0.309 0,-0.05 -0.002,-0.104 -0.004,-0.16 C 1.297,-0.945 1.291,-0.996 1.281,-1.043 l -2.051,0 0,-1.442 1.638,0 C 0.878,-2.532 0.885,-2.582 0.89,-2.636 0.894,-2.689 0.896,-2.742 0.896,-2.793 0.896,-2.845 0.894,-2.898 0.89,-2.954 0.885,-3.01 0.878,-3.062 0.868,-3.108 l -1.638,0 0,-1.722 2.107,0 C 1.352,-4.924 1.358,-5.026 1.358,-5.138 1.358,-5.189 1.357,-5.243 1.354,-5.299 1.353,-5.355 1.347,-5.406 1.337,-5.453 l -2.82,0 0,5.033 z"
             id="path122"
             style="fill:#3e8dcb;fill-opacity:1;fill-rule:nonzero;stroke:none" /></g><g
           transform="translate(154.3276,21.3477)"
           id="g124"><path
             d="M 0,0 C 0.103,-0.201 0.168,-0.395 0.196,-0.581 0,-0.665 -0.201,-0.726 -0.406,-0.764 c -0.205,-0.037 -0.427,-0.055 -0.665,-0.055 -0.365,0 -0.692,0.059 -0.984,0.178 -0.292,0.12 -0.538,0.289 -0.738,0.511 -0.201,0.222 -0.354,0.491 -0.462,0.809 -0.107,0.317 -0.161,0.674 -0.161,1.071 0,0.401 0.054,0.764 0.161,1.088 0.108,0.324 0.261,0.6 0.462,0.83 0.2,0.228 0.445,0.404 0.735,0.528 0.289,0.123 0.614,0.186 0.973,0.186 0.266,0 0.494,-0.019 0.686,-0.057 C -0.208,4.288 -0.037,4.244 0.112,4.192 0.103,4.085 0.083,3.986 0.053,3.896 0.022,3.804 -0.014,3.707 -0.056,3.604 -0.126,3.628 -0.193,3.649 -0.259,3.668 -0.324,3.687 -0.395,3.703 -0.469,3.717 -0.544,3.73 -0.627,3.741 -0.718,3.748 -0.809,3.755 -0.912,3.759 -1.029,3.759 -1.538,3.759 -1.934,3.586 -2.216,3.24 -2.498,2.896 -2.639,2.398 -2.639,1.75 c 0,-0.332 0.039,-0.619 0.118,-0.861 0.081,-0.243 0.192,-0.444 0.336,-0.602 0.146,-0.159 0.32,-0.278 0.522,-0.357 0.203,-0.079 0.431,-0.119 0.683,-0.119 0.196,0 0.374,0.016 0.532,0.048 C -0.289,-0.107 -0.14,-0.062 0,0"
             id="path126"
             style="fill:#3e8dcb;fill-opacity:1;fill-rule:nonzero;stroke:none" /></g><g
           transform="translate(158.3032,21.1445)"
           id="g128"><path
             d="M 0,0 C 0.233,0 0.436,0.045 0.605,0.137 0.776,0.228 0.917,0.359 1.029,0.532 1.142,0.704 1.226,0.912 1.281,1.154 1.337,1.397 1.365,1.673 1.365,1.98 1.365,2.284 1.337,2.559 1.281,2.804 1.226,3.048 1.142,3.256 1.029,3.427 0.917,3.597 0.776,3.728 0.605,3.818 0.436,3.909 0.233,3.955 0,3.955 -0.233,3.955 -0.435,3.909 -0.605,3.818 -0.775,3.728 -0.917,3.597 -1.028,3.427 -1.141,3.256 -1.225,3.048 -1.28,2.804 -1.337,2.559 -1.364,2.284 -1.364,1.98 -1.364,1.673 -1.337,1.397 -1.28,1.154 -1.225,0.912 -1.141,0.704 -1.028,0.532 -0.917,0.359 -0.775,0.228 -0.605,0.137 -0.435,0.045 -0.233,0 0,0 m 0,-0.616 c -0.363,0 -0.679,0.064 -0.944,0.192 -0.267,0.128 -0.488,0.308 -0.662,0.539 -0.175,0.232 -0.306,0.505 -0.392,0.822 -0.087,0.318 -0.13,0.666 -0.13,1.043 0,0.378 0.043,0.726 0.13,1.043 0.086,0.318 0.217,0.592 0.392,0.824 0.174,0.23 0.395,0.411 0.662,0.542 C -0.679,4.52 -0.363,4.585 0,4.585 0.364,4.585 0.68,4.52 0.945,4.389 1.211,4.258 1.432,4.077 1.606,3.847 1.782,3.615 1.911,3.341 1.995,3.023 2.079,2.706 2.121,2.358 2.121,1.98 2.121,1.603 2.079,1.255 1.995,0.937 1.911,0.62 1.782,0.347 1.606,0.115 1.432,-0.116 1.211,-0.296 0.945,-0.424 0.68,-0.552 0.364,-0.616 0,-0.616"
             id="path130"
             style="fill:#3e8dcb;fill-opacity:1;fill-rule:nonzero;stroke:none" /></g><g
           transform="translate(162.4341,21.375)"
           id="g132"><path
             d="M 0,0 C 0.153,-0.056 0.314,-0.104 0.482,-0.146 0.65,-0.188 0.856,-0.21 1.099,-0.21 c 0.382,0 0.669,0.078 0.857,0.234 C 2.146,0.181 2.24,0.393 2.24,0.658 2.24,0.789 2.22,0.901 2.181,0.994 2.141,1.088 2.081,1.168 2.002,1.235 1.922,1.304 1.823,1.365 1.704,1.421 1.585,1.478 1.446,1.538 1.288,1.604 L 0.889,1.765 C 0.753,1.82 0.63,1.882 0.518,1.95 0.406,2.018 0.309,2.101 0.228,2.198 0.146,2.296 0.081,2.409 0.035,2.538 c -0.047,0.128 -0.07,0.281 -0.07,0.458 0,0.425 0.144,0.757 0.433,0.998 0.29,0.24 0.696,0.36 1.219,0.36 0.224,0 0.436,-0.018 0.637,-0.056 C 2.454,4.261 2.632,4.214 2.786,4.158 2.763,3.962 2.711,3.769 2.632,3.577 2.506,3.624 2.359,3.666 2.194,3.703 2.028,3.74 1.841,3.76 1.631,3.76 1.337,3.76 1.11,3.7 0.952,3.581 0.793,3.462 0.714,3.283 0.714,3.045 0.714,2.947 0.733,2.859 0.773,2.783 0.812,2.706 0.865,2.638 0.931,2.58 0.996,2.521 1.073,2.469 1.162,2.422 1.25,2.376 1.344,2.334 1.441,2.296 L 1.834,2.143 C 2.021,2.067 2.187,1.989 2.331,1.908 2.476,1.826 2.599,1.73 2.702,1.621 2.805,1.511 2.883,1.382 2.937,1.232 2.99,1.083 3.017,0.908 3.017,0.707 3.017,0.227 2.851,-0.152 2.52,-0.431 2.188,-0.708 1.724,-0.847 1.127,-0.847 c -0.145,0 -0.275,0.005 -0.393,0.014 -0.116,0.01 -0.224,0.023 -0.325,0.042 -0.1,0.019 -0.197,0.042 -0.29,0.07 -0.094,0.029 -0.189,0.059 -0.287,0.091 0.009,0.103 0.03,0.208 0.063,0.316 C -0.072,-0.207 -0.038,-0.103 0,0"
             id="path134"
             style="fill:#3e8dcb;fill-opacity:1;fill-rule:nonzero;stroke:none" /></g><g
           transform="translate(168.5728,22.4531)"
           id="g136"><path
             d="m 0,0 -1.596,3.192 c 0.061,0.009 0.126,0.016 0.197,0.021 0.069,0.005 0.139,0.007 0.21,0.007 0.06,0 0.127,-0.002 0.199,-0.007 0.072,-0.005 0.136,-0.012 0.192,-0.021 L 0.378,0.693 1.54,3.192 C 1.601,3.201 1.661,3.208 1.723,3.213 1.783,3.218 1.846,3.22 1.911,3.22 1.977,3.22 2.042,3.218 2.107,3.213 2.173,3.208 2.235,3.201 2.296,3.192 L 0.722,0 l 0,-1.841 C 0.66,-1.851 0.6,-1.857 0.539,-1.862 0.479,-1.866 0.418,-1.869 0.357,-1.869 c -0.06,0 -0.123,0.003 -0.185,0.007 C 0.108,-1.857 0.052,-1.851 0,-1.841 L 0,0 z"
             id="path138"
             style="fill:#3e8dcb;fill-opacity:1;fill-rule:nonzero;stroke:none" /></g><g
           transform="translate(172.437,21.375)"
           id="g140"><path
             d="M 0,0 C 0.153,-0.056 0.314,-0.104 0.482,-0.146 0.65,-0.188 0.856,-0.21 1.099,-0.21 c 0.382,0 0.669,0.078 0.857,0.234 C 2.146,0.181 2.24,0.393 2.24,0.658 2.24,0.789 2.22,0.901 2.181,0.994 2.141,1.088 2.081,1.168 2.002,1.235 1.922,1.304 1.823,1.365 1.704,1.421 1.585,1.478 1.446,1.538 1.288,1.604 L 0.889,1.765 C 0.753,1.82 0.63,1.882 0.518,1.95 0.406,2.018 0.309,2.101 0.228,2.198 0.146,2.296 0.081,2.409 0.035,2.538 c -0.047,0.128 -0.07,0.281 -0.07,0.458 0,0.425 0.144,0.757 0.433,0.998 0.29,0.24 0.696,0.36 1.219,0.36 0.224,0 0.436,-0.018 0.637,-0.056 C 2.454,4.261 2.632,4.214 2.786,4.158 2.763,3.962 2.711,3.769 2.632,3.577 2.506,3.624 2.359,3.666 2.194,3.703 2.028,3.74 1.841,3.76 1.631,3.76 1.337,3.76 1.11,3.7 0.952,3.581 0.793,3.462 0.714,3.283 0.714,3.045 0.714,2.947 0.733,2.859 0.773,2.783 0.812,2.706 0.865,2.638 0.931,2.58 0.996,2.521 1.073,2.469 1.162,2.422 1.25,2.376 1.344,2.334 1.441,2.296 L 1.834,2.143 C 2.021,2.067 2.187,1.989 2.331,1.908 2.476,1.826 2.599,1.73 2.702,1.621 2.805,1.511 2.883,1.382 2.937,1.232 2.99,1.083 3.017,0.908 3.017,0.707 3.017,0.227 2.851,-0.152 2.52,-0.431 2.188,-0.708 1.724,-0.847 1.127,-0.847 c -0.145,0 -0.275,0.005 -0.393,0.014 -0.116,0.01 -0.224,0.023 -0.325,0.042 -0.1,0.019 -0.197,0.042 -0.29,0.07 -0.094,0.029 -0.189,0.059 -0.287,0.091 0.009,0.103 0.03,0.208 0.063,0.316 C -0.072,-0.207 -0.038,-0.103 0,0"
             id="path142"
             style="fill:#3e8dcb;fill-opacity:1;fill-rule:nonzero;stroke:none" /></g><g
           transform="translate(178.3384,25.0225)"
           id="g144"><path
             d="m 0,0 -1.31,0 c -0.008,0.047 -0.016,0.098 -0.02,0.154 -0.005,0.056 -0.007,0.11 -0.007,0.16 0,0.052 0.002,0.105 0.007,0.159 0.004,0.053 0.012,0.103 0.02,0.15 l 3.332,0 C 2.032,0.576 2.039,0.527 2.044,0.476 2.048,0.425 2.051,0.373 2.051,0.322 2.051,0.271 2.048,0.216 2.044,0.157 2.039,0.099 2.032,0.047 2.022,0 l -1.308,0 0,-4.41 C 0.606,-4.424 0.489,-4.432 0.363,-4.432 0.233,-4.432 0.111,-4.424 0,-4.41 L 0,0 z"
             id="path146"
             style="fill:#3e8dcb;fill-opacity:1;fill-rule:nonzero;stroke:none" /></g><g
           transform="translate(182.5239,26.8213)"
           id="g148"><path
             d="M 0,0 C 0.064,0.01 0.139,0.018 0.22,0.024 0.302,0.031 0.385,0.035 0.469,0.035 0.553,0.035 0.638,0.031 0.724,0.024 0.811,0.018 0.891,0.01 0.966,0 L 1.7,-0.756 C 1.593,-0.774 1.474,-0.784 1.344,-0.784 c -0.066,0 -0.131,0.003 -0.197,0.007 -0.065,0.005 -0.127,0.011 -0.188,0.021 L 0,0 z m -0.28,-1.176 2.764,0 C 2.498,-1.27 2.506,-1.372 2.506,-1.484 2.506,-1.535 2.504,-1.589 2.502,-1.645 2.5,-1.701 2.494,-1.752 2.484,-1.799 l -2.05,0 0,-1.442 1.637,0 C 2.081,-3.288 2.088,-3.338 2.093,-3.392 2.097,-3.445 2.1,-3.498 2.1,-3.549 2.1,-3.601 2.097,-3.654 2.093,-3.71 2.088,-3.766 2.081,-3.817 2.071,-3.864 l -1.637,0 0,-1.722 2.106,0 C 2.555,-5.68 2.562,-5.782 2.562,-5.894 2.562,-5.945 2.561,-5.999 2.558,-6.055 2.556,-6.111 2.55,-6.162 2.54,-6.209 l -2.82,0 0,5.033 z"
             id="path150"
             style="fill:#3e8dcb;fill-opacity:1;fill-rule:nonzero;stroke:none" /></g><g
           transform="translate(187.228,25.6455)"
           id="g152"><path
             d="M 0,0 C 0.056,0.009 0.12,0.016 0.192,0.021 0.265,0.025 0.334,0.027 0.399,0.027 0.465,0.027 0.535,0.025 0.612,0.021 0.689,0.016 0.754,0.009 0.805,0 L 2.107,-3.15 3.416,0 c 0.047,0.009 0.105,0.016 0.175,0.021 0.07,0.004 0.138,0.006 0.203,0.006 0.06,0 0.129,-0.002 0.203,-0.006 C 4.071,0.016 4.135,0.009 4.187,0 L 4.424,-5.033 C 4.368,-5.043 4.311,-5.05 4.253,-5.055 4.194,-5.059 4.135,-5.062 4.074,-5.062 c -0.06,0 -0.12,0.003 -0.178,0.007 -0.059,0.005 -0.114,0.012 -0.165,0.022 L 3.57,-1.12 2.338,-3.99 C 2.245,-4.004 2.149,-4.011 2.051,-4.011 c -0.088,0 -0.177,0.007 -0.266,0.021 L 0.595,-1.1 0.435,-5.033 C 0.383,-5.043 0.329,-5.05 0.273,-5.055 0.217,-5.059 0.163,-5.062 0.112,-5.062 c -0.06,0 -0.119,0.003 -0.174,0.007 -0.057,0.005 -0.111,0.012 -0.162,0.022 L 0,0 z"
             id="path154"
             style="fill:#3e8dcb;fill-opacity:1;fill-rule:nonzero;stroke:none" /></g><g
           transform="translate(193.8921,25.6455)"
           id="g156"><path
             d="m 0,0 2.765,0 c 0.013,-0.094 0.021,-0.196 0.021,-0.309 0,-0.05 -0.002,-0.104 -0.004,-0.16 C 2.78,-0.525 2.774,-0.576 2.765,-0.623 l -2.051,0 0,-1.442 1.638,0 C 2.361,-2.112 2.368,-2.162 2.373,-2.216 2.377,-2.27 2.38,-2.322 2.38,-2.373 2.38,-2.425 2.377,-2.479 2.373,-2.534 2.368,-2.59 2.361,-2.642 2.352,-2.688 l -1.638,0 0,-1.722 2.106,0 C 2.835,-4.504 2.842,-4.606 2.842,-4.718 2.842,-4.77 2.841,-4.823 2.838,-4.879 2.836,-4.936 2.83,-4.986 2.82,-5.033 L 0,-5.033 0,0 z"
             id="path158"
             style="fill:#3e8dcb;fill-opacity:1;fill-rule:nonzero;stroke:none" /></g><g
           transform="translate(201.4868,25.6455)"
           id="g160"><path
             d="M 0,0 C 0.051,0.009 0.105,0.016 0.164,0.021 0.223,0.025 0.277,0.027 0.329,0.027 0.38,0.027 0.435,0.025 0.493,0.021 0.552,0.016 0.606,0.009 0.658,0 l 2.191,-3.78 0,3.78 C 2.905,0.009 2.963,0.016 3.023,0.021 3.084,0.025 3.146,0.027 3.206,0.027 3.257,0.027 3.311,0.025 3.367,0.021 3.423,0.016 3.477,0.009 3.527,0 l 0,-5.033 C 3.477,-5.043 3.422,-5.05 3.363,-5.055 3.305,-5.059 3.25,-5.062 3.199,-5.062 c -0.052,0 -0.106,0.003 -0.165,0.007 -0.058,0.005 -0.113,0.012 -0.164,0.022 l -2.198,3.759 0,-3.759 C 0.62,-5.043 0.565,-5.05 0.507,-5.055 0.449,-5.059 0.392,-5.062 0.336,-5.062 c -0.061,0 -0.12,0.003 -0.179,0.007 C 0.099,-5.05 0.046,-5.043 0,-5.033 L 0,0 z"
             id="path162"
             style="fill:#3e8dcb;fill-opacity:1;fill-rule:nonzero;stroke:none" /></g><g
           transform="translate(207.2896,25.6455)"
           id="g164"><path
             d="M 0,0 C 0.111,0.014 0.233,0.021 0.363,0.021 0.489,0.021 0.606,0.014 0.714,0 l 0,-2.856 c 0,-0.29 0.018,-0.537 0.056,-0.743 0.037,-0.205 0.097,-0.372 0.181,-0.5 0.084,-0.129 0.195,-0.222 0.333,-0.283 0.138,-0.061 0.307,-0.092 0.508,-0.092 0.2,0 0.368,0.031 0.504,0.092 0.135,0.061 0.245,0.154 0.329,0.283 0.084,0.128 0.145,0.295 0.182,0.5 0.037,0.206 0.055,0.453 0.055,0.743 L 2.862,0 C 2.979,0.014 3.099,0.021 3.22,0.021 3.351,0.021 3.472,0.014 3.584,0 l 0,-2.982 C 3.584,-3.318 3.552,-3.619 3.489,-3.885 3.426,-4.151 3.323,-4.375 3.181,-4.558 3.039,-4.739 2.854,-4.878 2.625,-4.974 2.396,-5.069 2.118,-5.117 1.792,-5.117 c -0.327,0 -0.605,0.048 -0.833,0.143 -0.23,0.096 -0.415,0.235 -0.557,0.416 C 0.26,-4.375 0.157,-4.151 0.094,-3.885 0.031,-3.619 0,-3.318 0,-2.982 L 0,0 z"
             id="path166"
             style="fill:#3e8dcb;fill-opacity:1;fill-rule:nonzero;stroke:none" /></g><g
           transform="translate(213.2886,25.6455)"
           id="g168"><path
             d="M 0,0 C 0.056,0.009 0.12,0.016 0.192,0.021 0.265,0.025 0.334,0.027 0.399,0.027 0.465,0.027 0.535,0.025 0.612,0.021 0.689,0.016 0.754,0.009 0.805,0 L 2.107,-3.15 3.416,0 c 0.047,0.009 0.105,0.016 0.175,0.021 0.07,0.004 0.138,0.006 0.203,0.006 0.06,0 0.129,-0.002 0.203,-0.006 C 4.071,0.016 4.135,0.009 4.187,0 L 4.424,-5.033 C 4.368,-5.043 4.311,-5.05 4.253,-5.055 4.194,-5.059 4.135,-5.062 4.074,-5.062 c -0.06,0 -0.12,0.003 -0.178,0.007 -0.059,0.005 -0.114,0.012 -0.165,0.022 L 3.57,-1.12 2.338,-3.99 C 2.245,-4.004 2.149,-4.011 2.051,-4.011 c -0.088,0 -0.177,0.007 -0.266,0.021 L 0.595,-1.1 0.435,-5.033 C 0.383,-5.043 0.329,-5.05 0.273,-5.055 0.217,-5.059 0.163,-5.062 0.112,-5.062 c -0.06,0 -0.119,0.003 -0.174,0.007 -0.057,0.005 -0.111,0.012 -0.162,0.022 L 0,0 z"
             id="path170"
             style="fill:#3e8dcb;fill-opacity:1;fill-rule:nonzero;stroke:none" /></g><g
           transform="translate(221.436,26.0654)"
           id="g172"><path
             d="m 0,0 c -0.061,-0.01 -0.123,-0.017 -0.188,-0.021 -0.066,-0.004 -0.131,-0.007 -0.197,-0.007 -0.065,0 -0.126,0.003 -0.181,0.007 C -0.623,-0.017 -0.684,-0.01 -0.749,0 l 0.742,0.756 C 0.068,0.766 0.147,0.773 0.231,0.78 0.315,0.787 0.399,0.791 0.483,0.791 0.572,0.791 0.656,0.787 0.735,0.78 0.814,0.773 0.887,0.766 0.952,0.756 L 0,0 z m -1.483,-0.42 2.764,0 c 0.014,-0.094 0.022,-0.196 0.022,-0.309 0,-0.05 -0.002,-0.104 -0.004,-0.16 C 1.297,-0.945 1.291,-0.996 1.281,-1.043 l -2.051,0 0,-1.442 1.638,0 C 0.878,-2.532 0.885,-2.582 0.89,-2.636 0.894,-2.689 0.896,-2.742 0.896,-2.793 0.896,-2.845 0.894,-2.898 0.89,-2.954 0.885,-3.01 0.878,-3.062 0.868,-3.108 l -1.638,0 0,-1.722 2.107,0 C 1.352,-4.924 1.358,-5.026 1.358,-5.138 1.358,-5.189 1.357,-5.243 1.354,-5.299 1.353,-5.355 1.347,-5.406 1.337,-5.453 l -2.82,0 0,5.033 z"
             id="path174"
             style="fill:#3e8dcb;fill-opacity:1;fill-rule:nonzero;stroke:none" /></g><g
           transform="translate(224.8101,25.6523)"
           id="g176"><path
             d="M 0,0 C 0.103,0.009 0.196,0.019 0.28,0.028 0.364,0.037 0.447,0.046 0.528,0.053 0.61,0.06 0.695,0.065 0.784,0.07 0.873,0.074 0.971,0.077 1.078,0.077 1.316,0.077 1.552,0.054 1.785,0.007 2.019,-0.04 2.227,-0.121 2.408,-0.238 2.59,-0.354 2.738,-0.513 2.853,-0.711 2.967,-0.909 3.024,-1.16 3.024,-1.463 3.024,-1.646 2.994,-1.811 2.934,-1.96 2.872,-2.109 2.796,-2.242 2.702,-2.359 2.608,-2.476 2.503,-2.577 2.384,-2.663 2.265,-2.75 2.149,-2.821 2.037,-2.877 L 1.953,-2.919 3.416,-5.04 C 3.29,-5.054 3.147,-5.062 2.989,-5.062 c -0.126,0 -0.252,0.008 -0.378,0.022 l -1.61,2.331 0,0.028 0.056,0.014 c 0.127,0.032 0.259,0.077 0.399,0.133 0.14,0.055 0.27,0.13 0.389,0.221 0.119,0.09 0.218,0.2 0.298,0.329 0.079,0.128 0.118,0.283 0.118,0.465 0,0.336 -0.099,0.585 -0.297,0.748 -0.198,0.165 -0.466,0.246 -0.802,0.246 -0.079,0 -0.153,-0.002 -0.221,-0.007 C 0.874,-0.537 0.798,-0.544 0.714,-0.553 l 0,-4.487 C 0.663,-5.045 0.605,-5.05 0.543,-5.054 0.479,-5.059 0.42,-5.062 0.364,-5.062 0.309,-5.062 0.247,-5.06 0.182,-5.058 0.117,-5.055 0.056,-5.05 0,-5.04 L 0,0 z"
             id="path178"
             style="fill:#3e8dcb;fill-opacity:1;fill-rule:nonzero;stroke:none" /></g><g
           transform="translate(230.0679,25.6455)"
           id="g180"><path
             d="m 0,0 c 0.056,0.009 0.114,0.016 0.175,0.021 0.06,0.004 0.121,0.006 0.181,0.006 0.061,0 0.123,-0.002 0.183,-0.006 C 0.6,0.016 0.658,0.009 0.714,0 l 0,-5.033 C 0.658,-5.043 0.601,-5.05 0.542,-5.055 0.483,-5.059 0.422,-5.062 0.356,-5.062 c -0.06,0 -0.122,0.003 -0.185,0.007 C 0.108,-5.05 0.051,-5.043 0,-5.033 L 0,0 z"
             id="path182"
             style="fill:#3e8dcb;fill-opacity:1;fill-rule:nonzero;stroke:none" /></g><g
           transform="translate(237.2144,20.1572)"
           id="g184"><path
             d="m 0,0 c -0.004,-0.107 -0.015,-0.214 -0.031,-0.318 -0.017,-0.106 -0.045,-0.207 -0.087,-0.305 l -1.611,0.301 c 0.009,0.131 0.024,0.238 0.042,0.322 0.019,0.084 0.047,0.178 0.084,0.28 L 0,0 z m -2.19,0.987 c 0.233,0 0.434,0.045 0.605,0.137 0.17,0.091 0.312,0.223 0.424,0.396 0.111,0.171 0.195,0.379 0.252,0.622 0.055,0.243 0.084,0.518 0.084,0.826 0,0.303 -0.029,0.578 -0.084,0.823 -0.057,0.244 -0.141,0.452 -0.252,0.623 -0.112,0.17 -0.254,0.301 -0.424,0.392 -0.171,0.09 -0.372,0.136 -0.605,0.136 -0.234,0 -0.436,-0.046 -0.606,-0.136 C -2.967,4.715 -3.107,4.584 -3.22,4.414 -3.332,4.243 -3.416,4.035 -3.472,3.791 -3.527,3.546 -3.556,3.271 -3.556,2.968 c 0,-0.308 0.029,-0.583 0.084,-0.826 0.056,-0.243 0.14,-0.451 0.252,-0.622 0.113,-0.173 0.253,-0.305 0.424,-0.396 0.17,-0.092 0.372,-0.137 0.606,-0.137 m 0,-0.616 c -0.365,0 -0.679,0.065 -0.946,0.192 -0.265,0.128 -0.486,0.308 -0.661,0.54 -0.175,0.231 -0.306,0.504 -0.392,0.822 -0.086,0.317 -0.129,0.665 -0.129,1.043 0,0.378 0.043,0.725 0.129,1.043 0.086,0.317 0.217,0.592 0.392,0.823 0.175,0.23 0.396,0.411 0.661,0.542 0.267,0.131 0.581,0.196 0.946,0.196 0.364,0 0.678,-0.065 0.944,-0.196 0.267,-0.131 0.487,-0.312 0.662,-0.542 0.175,-0.231 0.305,-0.506 0.389,-0.823 0.084,-0.318 0.126,-0.665 0.126,-1.043 0,-0.378 -0.042,-0.726 -0.126,-1.043 C -0.279,1.607 -0.409,1.334 -0.584,1.103 -0.759,0.871 -0.979,0.691 -1.246,0.563 -1.512,0.436 -1.826,0.371 -2.19,0.371"
             id="path186"
             style="fill:#3e8dcb;fill-opacity:1;fill-rule:nonzero;stroke:none" /></g><g
           transform="translate(239.2163,25.6455)"
           id="g188"><path
             d="M 0,0 C 0.111,0.014 0.233,0.021 0.363,0.021 0.489,0.021 0.606,0.014 0.714,0 l 0,-2.856 c 0,-0.29 0.018,-0.537 0.056,-0.743 0.037,-0.205 0.097,-0.372 0.181,-0.5 0.084,-0.129 0.195,-0.222 0.333,-0.283 0.138,-0.061 0.307,-0.092 0.508,-0.092 0.2,0 0.368,0.031 0.504,0.092 0.135,0.061 0.245,0.154 0.329,0.283 0.084,0.128 0.145,0.295 0.182,0.5 0.037,0.206 0.055,0.453 0.055,0.743 L 2.862,0 C 2.979,0.014 3.099,0.021 3.22,0.021 3.351,0.021 3.472,0.014 3.584,0 l 0,-2.982 C 3.584,-3.318 3.552,-3.619 3.489,-3.885 3.426,-4.151 3.323,-4.375 3.181,-4.558 3.039,-4.739 2.854,-4.878 2.625,-4.974 2.396,-5.069 2.118,-5.117 1.792,-5.117 c -0.327,0 -0.605,0.048 -0.833,0.143 -0.23,0.096 -0.415,0.235 -0.557,0.416 C 0.26,-4.375 0.157,-4.151 0.094,-3.885 0.031,-3.619 0,-3.318 0,-2.982 L 0,0 z"
             id="path190"
             style="fill:#3e8dcb;fill-opacity:1;fill-rule:nonzero;stroke:none" /></g><g
           transform="translate(245.0757,25.6455)"
           id="g192"><path
             d="m 0,0 2.765,0 c 0.013,-0.094 0.021,-0.196 0.021,-0.309 0,-0.05 -0.002,-0.104 -0.004,-0.16 C 2.78,-0.525 2.774,-0.576 2.765,-0.623 l -2.051,0 0,-1.442 1.638,0 C 2.361,-2.112 2.368,-2.162 2.373,-2.216 2.377,-2.27 2.38,-2.322 2.38,-2.373 2.38,-2.425 2.377,-2.479 2.373,-2.534 2.368,-2.59 2.361,-2.642 2.352,-2.688 l -1.638,0 0,-1.722 2.106,0 C 2.835,-4.504 2.842,-4.606 2.842,-4.718 2.842,-4.77 2.841,-4.823 2.838,-4.879 2.836,-4.936 2.83,-4.986 2.82,-5.033 L 0,-5.033 0,0 z"
             id="path194"
             style="fill:#3e8dcb;fill-opacity:1;fill-rule:nonzero;stroke:none" /></g><g
           transform="translate(252.6704,25.6455)"
           id="g196"><path
             d="m 0,0 2.765,0 c 0.013,-0.094 0.021,-0.196 0.021,-0.309 0,-0.05 -0.002,-0.104 -0.004,-0.16 C 2.78,-0.525 2.774,-0.576 2.765,-0.623 l -2.051,0 0,-1.442 1.638,0 C 2.361,-2.112 2.368,-2.162 2.373,-2.216 2.377,-2.27 2.38,-2.322 2.38,-2.373 2.38,-2.425 2.377,-2.479 2.373,-2.534 2.368,-2.59 2.361,-2.642 2.352,-2.688 l -1.638,0 0,-1.722 2.106,0 C 2.835,-4.504 2.842,-4.606 2.842,-4.718 2.842,-4.77 2.841,-4.823 2.838,-4.879 2.836,-4.936 2.83,-4.986 2.82,-5.033 L 0,-5.033 0,0 z"
             id="path198"
             style="fill:#3e8dcb;fill-opacity:1;fill-rule:nonzero;stroke:none" /></g><g
           transform="translate(257.5142,25.6455)"
           id="g200"><path
             d="M 0,0 C 0.051,0.009 0.105,0.016 0.164,0.021 0.223,0.025 0.277,0.027 0.329,0.027 0.38,0.027 0.435,0.025 0.493,0.021 0.552,0.016 0.606,0.009 0.658,0 l 2.191,-3.78 0,3.78 C 2.905,0.009 2.963,0.016 3.023,0.021 3.084,0.025 3.146,0.027 3.206,0.027 3.257,0.027 3.311,0.025 3.367,0.021 3.423,0.016 3.477,0.009 3.527,0 l 0,-5.033 C 3.477,-5.043 3.422,-5.05 3.363,-5.055 3.305,-5.059 3.25,-5.062 3.199,-5.062 c -0.052,0 -0.106,0.003 -0.165,0.007 -0.058,0.005 -0.113,0.012 -0.164,0.022 l -2.198,3.759 0,-3.759 C 0.62,-5.043 0.565,-5.05 0.507,-5.055 0.449,-5.059 0.392,-5.062 0.336,-5.062 c -0.061,0 -0.12,0.003 -0.179,0.007 C 0.099,-5.05 0.046,-5.043 0,-5.033 L 0,0 z"
             id="path202"
             style="fill:#3e8dcb;fill-opacity:1;fill-rule:nonzero;stroke:none" /></g><g
           transform="translate(266.8735,22.3975)"
           id="g204"><path
             d="M 0,0 1.533,0 0.763,2.568 0,0 z m 1.722,-0.623 -1.911,0 -0.343,-1.162 c -0.061,-0.01 -0.121,-0.017 -0.182,-0.022 -0.06,-0.004 -0.122,-0.006 -0.182,-0.006 -0.066,0 -0.129,0.002 -0.193,0.006 -0.062,0.005 -0.12,0.012 -0.171,0.022 l 1.638,5.033 c 0.06,0.009 0.126,0.016 0.196,0.021 0.07,0.004 0.142,0.006 0.217,0.006 0.065,0 0.133,-0.002 0.203,-0.006 C 1.063,3.264 1.132,3.257 1.197,3.248 L 2.828,-1.785 C 2.771,-1.795 2.709,-1.802 2.639,-1.807 2.569,-1.811 2.501,-1.813 2.436,-1.813 c -0.061,0 -0.123,0.002 -0.186,0.006 -0.062,0.005 -0.122,0.012 -0.178,0.022 l -0.35,1.162 z"
             id="path206"
             style="fill:#3e8dcb;fill-opacity:1;fill-rule:nonzero;stroke:none" /></g><g
           transform="translate(271.5278,25.6455)"
           id="g208"><path
             d="M 0,0 C 0.051,0.009 0.105,0.016 0.164,0.021 0.223,0.025 0.284,0.027 0.35,0.027 0.41,0.027 0.471,0.025 0.532,0.021 0.593,0.016 0.65,0.009 0.707,0 l 0,-4.403 1.974,0 C 2.69,-4.455 2.696,-4.508 2.698,-4.564 2.7,-4.62 2.702,-4.672 2.702,-4.718 2.702,-4.83 2.694,-4.936 2.681,-5.033 L 0,-5.033 0,0 z"
             id="path210"
             style="fill:#3e8dcb;fill-opacity:1;fill-rule:nonzero;stroke:none" /></g><g
           transform="translate(275.9595,21.375)"
           id="g212"><path
             d="M 0,0 C 0.153,-0.056 0.314,-0.104 0.482,-0.146 0.65,-0.188 0.856,-0.21 1.099,-0.21 c 0.382,0 0.669,0.078 0.857,0.234 C 2.146,0.181 2.24,0.393 2.24,0.658 2.24,0.789 2.22,0.901 2.181,0.994 2.141,1.088 2.081,1.168 2.002,1.235 1.922,1.304 1.823,1.365 1.704,1.421 1.585,1.478 1.446,1.538 1.288,1.604 L 0.889,1.765 C 0.753,1.82 0.63,1.882 0.518,1.95 0.406,2.018 0.309,2.101 0.228,2.198 0.146,2.296 0.081,2.409 0.035,2.538 c -0.047,0.128 -0.07,0.281 -0.07,0.458 0,0.425 0.144,0.757 0.433,0.998 0.29,0.24 0.696,0.36 1.219,0.36 0.224,0 0.436,-0.018 0.637,-0.056 C 2.454,4.261 2.632,4.214 2.786,4.158 2.763,3.962 2.711,3.769 2.632,3.577 2.506,3.624 2.359,3.666 2.194,3.703 2.028,3.74 1.841,3.76 1.631,3.76 1.337,3.76 1.11,3.7 0.952,3.581 0.793,3.462 0.714,3.283 0.714,3.045 0.714,2.947 0.733,2.859 0.773,2.783 0.812,2.706 0.865,2.638 0.931,2.58 0.996,2.521 1.073,2.469 1.162,2.422 1.25,2.376 1.344,2.334 1.441,2.296 L 1.834,2.143 C 2.021,2.067 2.187,1.989 2.331,1.908 2.476,1.826 2.599,1.73 2.702,1.621 2.805,1.511 2.883,1.382 2.937,1.232 2.99,1.083 3.017,0.908 3.017,0.707 3.017,0.227 2.851,-0.152 2.52,-0.431 2.188,-0.708 1.724,-0.847 1.127,-0.847 c -0.145,0 -0.275,0.005 -0.393,0.014 -0.116,0.01 -0.224,0.023 -0.325,0.042 -0.1,0.019 -0.197,0.042 -0.29,0.07 -0.094,0.029 -0.189,0.059 -0.287,0.091 0.009,0.103 0.03,0.208 0.063,0.316 C -0.072,-0.207 -0.038,-0.103 0,0"
             id="path214"
             style="fill:#3e8dcb;fill-opacity:1;fill-rule:nonzero;stroke:none" /></g><g
           transform="translate(281.7485,22.3975)"
           id="g216"><path
             d="M 0,0 1.533,0 0.763,2.568 0,0 z m 1.722,-0.623 -1.911,0 -0.343,-1.162 c -0.061,-0.01 -0.121,-0.017 -0.182,-0.022 -0.06,-0.004 -0.122,-0.006 -0.182,-0.006 -0.066,0 -0.129,0.002 -0.193,0.006 -0.062,0.005 -0.12,0.012 -0.171,0.022 l 1.638,5.033 c 0.06,0.009 0.126,0.016 0.196,0.021 0.07,0.004 0.142,0.006 0.217,0.006 0.065,0 0.133,-0.002 0.203,-0.006 C 1.063,3.264 1.132,3.257 1.197,3.248 L 2.828,-1.785 C 2.771,-1.795 2.709,-1.802 2.639,-1.807 2.569,-1.811 2.501,-1.813 2.436,-1.813 c -0.061,0 -0.123,0.002 -0.186,0.006 -0.062,0.005 -0.122,0.012 -0.178,0.022 l -0.35,1.162 z"
             id="path218"
             style="fill:#3e8dcb;fill-opacity:1;fill-rule:nonzero;stroke:none" /></g><g
           transform="translate(289.4409,21.3477)"
           id="g220"><path
             d="M 0,0 C 0.103,-0.201 0.168,-0.395 0.196,-0.581 0,-0.665 -0.201,-0.726 -0.406,-0.764 c -0.205,-0.037 -0.427,-0.055 -0.665,-0.055 -0.365,0 -0.692,0.059 -0.984,0.178 -0.292,0.12 -0.538,0.289 -0.738,0.511 -0.201,0.222 -0.354,0.491 -0.462,0.809 -0.107,0.317 -0.161,0.674 -0.161,1.071 0,0.401 0.054,0.764 0.161,1.088 0.108,0.324 0.261,0.6 0.462,0.83 0.2,0.228 0.445,0.404 0.735,0.528 0.289,0.123 0.614,0.186 0.973,0.186 0.266,0 0.494,-0.019 0.686,-0.057 C -0.208,4.288 -0.037,4.244 0.112,4.192 0.103,4.085 0.083,3.986 0.053,3.896 0.022,3.804 -0.014,3.707 -0.056,3.604 -0.126,3.628 -0.193,3.649 -0.259,3.668 -0.324,3.687 -0.395,3.703 -0.469,3.717 -0.544,3.73 -0.627,3.741 -0.718,3.748 -0.809,3.755 -0.912,3.759 -1.029,3.759 -1.538,3.759 -1.934,3.586 -2.216,3.24 -2.498,2.896 -2.639,2.398 -2.639,1.75 c 0,-0.332 0.039,-0.619 0.118,-0.861 0.081,-0.243 0.192,-0.444 0.336,-0.602 0.146,-0.159 0.32,-0.278 0.522,-0.357 0.203,-0.079 0.431,-0.119 0.683,-0.119 0.196,0 0.374,0.016 0.532,0.048 C -0.289,-0.107 -0.14,-0.062 0,0"
             id="path222"
             style="fill:#3e8dcb;fill-opacity:1;fill-rule:nonzero;stroke:none" /></g><g
           transform="translate(291.646,25.6455)"
           id="g224"><path
             d="m 0,0 2.765,0 c 0.013,-0.094 0.021,-0.196 0.021,-0.309 0,-0.05 -0.002,-0.104 -0.004,-0.16 C 2.78,-0.525 2.774,-0.576 2.765,-0.623 l -2.051,0 0,-1.442 1.638,0 C 2.361,-2.112 2.368,-2.162 2.373,-2.216 2.377,-2.27 2.38,-2.322 2.38,-2.373 2.38,-2.425 2.377,-2.479 2.373,-2.534 2.368,-2.59 2.361,-2.642 2.352,-2.688 l -1.638,0 0,-1.722 2.106,0 C 2.835,-4.504 2.842,-4.606 2.842,-4.718 2.842,-4.77 2.841,-4.823 2.838,-4.879 2.836,-4.936 2.83,-4.986 2.82,-5.033 L 0,-5.033 0,0 z"
             id="path226"
             style="fill:#3e8dcb;fill-opacity:1;fill-rule:nonzero;stroke:none" /></g><g
           id="g228"><g
             id="g230" /><g
             id="g250"><g
               clip-path="url(#clipPath232)"
               id="g252"><g
                 id="g254"><g
                   id="g256"><g
                     id="g258"><g
                       id="g260"><path
                         d="M 72.901,42.279 C 76.082,26.111 65.558,10.426 49.387,7.244 33.22,4.062 17.533,14.589 14.349,30.757 c -3.181,16.169 7.347,31.857 23.515,35.038 16.17,3.182 31.855,-7.346 35.037,-23.516"
                         id="path262"
                         style="fill:url(#linearGradient240);stroke:none" /></g></g></g></g></g></g></g><g
           id="g264"><g
             id="g266" /><g
             id="g286"><g
               clip-path="url(#clipPath268)"
               id="g288"><g
                 id="g290"><g
                   id="g292"><g
                     id="g294"><g
                       id="g296"><path
                         d="M 66.652,44.156 C 69.828,28.012 59.32,12.349 43.173,9.172 27.029,5.995 11.365,16.507 8.185,32.651 5.009,48.796 15.521,64.461 31.666,67.638 47.813,70.815 63.475,60.303 66.652,44.156"
                         id="path298"
                         style="fill:url(#linearGradient276);stroke:none" /></g></g></g></g></g></g></g><g
           id="g300"><g
             id="g302" /><g
             id="g322"><g
               clip-path="url(#clipPath304)"
               id="g324"><g
                 id="g326"><g
                   id="g328"><g
                     id="g330"><g
                       id="g332"><path
                         d="M 71.21,48.579 C 74.387,32.435 63.878,16.772 47.731,13.595 31.587,10.418 15.923,20.929 12.744,37.073 9.568,53.219 20.08,68.884 36.225,72.061 52.372,75.238 68.033,64.726 71.21,48.579"
                         id="path334"
                         style="fill:url(#linearGradient312);stroke:none" /></g></g></g></g></g></g></g><g
           id="g336"><g
             id="g338" /><g
             id="g344"><g
               clip-path="url(#clipPath340)"
               id="g346"
               style="opacity:0.19999701"><g
                 transform="translate(53.7268,33.7381)"
                 id="g348"><path
                   d="m 0,0 c 0,-2.101 -1.469,-3.167 -4.367,-3.167 l -4.706,0 0,16.491 4.706,0 C 0,13.324 0,10.918 0,10.127 L 0,0 z m -22.125,4.631 1.977,5.351 1.977,-5.351 -3.954,0 z m 17.758,13.228 -9.239,0 0,-6.091 3.21,-14.981 -7.825,21.081 -3.852,0 -0.455,-1.229 -8.066,-21.795 -0.938,-2.535 4.843,0 0.456,1.226 2.438,6.562 7.295,0 2.894,-7.788 0,-0.01 9.239,0 c 5.407,0 8.901,3.023 8.901,7.701 l 0,10.127 c 0,4.697 -3.494,7.732 -8.901,7.732"
                   id="path350"
                   style="fill:#1d1e1c;fill-opacity:1;fill-rule:nonzero;stroke:none" /></g></g></g></g><g
           transform="translate(53.273,35.0339)"
           id="g352"><path
             d="m 0,0 c 0,-2.101 -1.469,-3.167 -4.367,-3.167 l -4.706,0 0,16.491 4.706,0 C 0,13.324 0,10.918 0,10.127 L 0,0 z m -22.125,4.631 1.977,5.351 1.977,-5.351 -3.954,0 z m 17.758,13.228 -9.239,0 0,-6.091 3.21,-14.981 -7.825,21.081 -3.852,0 -0.455,-1.229 -8.066,-21.795 -0.938,-2.535 4.843,0 0.456,1.226 2.438,6.562 7.295,0 2.894,-7.788 0,-0.01 9.239,0 c 5.407,0 8.901,3.023 8.901,7.701 l 0,10.127 c 0,4.697 -3.494,7.732 -8.901,7.732"
             id="path354"
             style="fill:#ffffff;fill-opacity:1;fill-rule:nonzero;stroke:none" /></g></g></g></g></svg>