<?xml version="1.0" encoding="UTF-8" standalone="no"?>
<!-- Created with Inkscape (http://www.inkscape.org/) -->

<svg
   xmlns:dc="http://purl.org/dc/elements/1.1/"
   xmlns:cc="http://creativecommons.org/ns#"
   xmlns:rdf="http://www.w3.org/1999/02/22-rdf-syntax-ns#"
   xmlns:svg="http://www.w3.org/2000/svg"
   xmlns="http://www.w3.org/2000/svg"
   version="1.1"
   width="490.75"
   height="205.78751"
   id="svg2"
   xml:space="preserve"><metadata
     id="metadata8"><rdf:RDF><cc:Work
         rdf:about=""><dc:format>image/svg+xml</dc:format><dc:type
           rdf:resource="http://purl.org/dc/dcmitype/StillImage" /><dc:title></dc:title></cc:Work></rdf:RDF></metadata><defs
     id="defs6" /><g
     transform="matrix(1.25,0,0,-1.25,0,205.7875)"
     id="g10"><g
       transform="scale(0.1,0.1)"
       id="g12"><path
         d="m 3343.3,1376.09 -184.65,-186.17 c 0,0 284.54,-284.529 396.54,-394.99 -112,-110.5 -396.54,-396.559 -396.54,-396.559 l 184.65,-186.16 582.69,582.719 -582.69,581.16"
         id="path14"
         style="fill:#911822;fill-opacity:1;fill-rule:nonzero;stroke:none" /><path
         d="m 370.82,794.93 c 112.004,110.461 396.555,394.99 396.555,394.99 L 582.719,1376.09 0,794.93 582.719,212.211 767.375,398.371 c 0,0 -284.551,286.059 -396.555,396.559"
         id="path16"
         style="fill:#911822;fill-opacity:1;fill-rule:nonzero;stroke:none" /><path
         d="m 2190.05,1050.31 0,595.96 -454.4,0 0,-595.96 -599.65,0 0,-454.4 599.65,0 0,-595.91 454.4,0 0,595.91 595.96,0 0,454.4 -595.96,0"
         id="path18"
         style="fill:#911822;fill-opacity:1;fill-rule:nonzero;stroke:none" /></g></g></svg>